<?xml version="1.0" encoding="UTF-8"?>
<svg xmlns="http://www.w3.org/2000/svg"
     width="800" height="570"
     viewBox="290 190 480 365">
  <g transform="translate(0,1024) scale(0.1,-0.1)" fill="#17212B" stroke="none">
    <path d="M5100 8056 c0 -106 4 -167 11 -171 6 -4 12 -5 14 -4 1 2 5 78 6 169
4 151 2 165 -13 168 -17 3 -18 -10 -18 -162z"/>
    <path d="M4910 7929 c-587 -62 -1122 -438 -1371 -964 -81 -172 -145 -397 -151
-535 -3 -49 -1 -55 18 -58 23 -3 34 19 34 73 0 55 48 259 83 355 120 330 332
603 631 811 224 156 489 258 754 290 73 9 102 16 102 26 0 7 -6 12 -12 12 -7
-1 -47 -5 -88 -10z"/>
    <path d="M5220 7926 c0 -9 33 -17 103 -25 376 -46 704 -204 985 -475 271 -262
458 -635 498 -993 6 -59 8 -63 32 -63 25 0 25 0 19 68 -4 37 -20 121 -36 187
-163 662 -725 1180 -1396 1289 -144 23 -205 27 -205 12z"/>
    <path d="M5190 7763 c-79 -12 -212 -62 -226 -85 -3 -5 17 2 45 16 105 54 260
71 371 41 67 -18 72 -18 39 0 -45 24 -161 39 -229 28z"/>
    <path d="M5529 7667 c19 -21 22 -30 13 -39 -9 -9 -27 -7 -74 8 -72 22 -147 23
-353 7 -145 -12 -226 -32 -260 -64 -14 -14 -1 -11 55 13 80 33 202 49 235 31
14 -8 3 -14 -55 -27 -93 -21 -178 -62 -276 -133 -44 -31 -106 -72 -139 -90
-33 -19 -49 -31 -35 -28 14 4 59 27 100 53 116 71 160 91 224 103 108 20 211
-14 204 -67 -6 -52 -176 -131 -335 -156 -40 -6 -132 -8 -220 -5 -154 5 -209
16 -143 28 24 4 11 7 -45 8 -44 1 -102 8 -129 16 -27 8 -51 13 -54 11 -7 -7
137 -77 210 -102 36 -12 101 -28 142 -35 96 -15 279 -7 327 14 19 8 48 18 64
22 42 9 205 90 267 131 72 49 76 50 53 25 -11 -13 -40 -35 -65 -48 -25 -14
-72 -43 -106 -64 -33 -22 -66 -39 -73 -39 -7 0 -9 -5 -6 -10 12 -20 -17 -40
-99 -66 -109 -35 -259 -42 -416 -20 -132 18 -189 19 -244 3 -35 -11 -26 -12
83 -12 84 0 124 -4 129 -12 4 -7 64 -22 132 -35 69 -12 128 -27 132 -32 12
-18 -30 -46 -88 -58 -45 -9 -79 -8 -179 7 -172 25 -260 18 -349 -25 -67 -33
-205 -150 -228 -194 -6 -11 16 4 48 35 78 73 132 107 229 141 92 32 184 36
280 13 119 -28 291 -8 380 44 16 10 48 28 69 41 22 13 36 18 32 12 -4 -7 -4
-12 -1 -12 13 0 62 29 74 44 8 9 18 16 24 16 37 0 -122 -114 -233 -168 -83
-39 -136 -51 -235 -52 l-80 -1 45 -15 c25 -8 91 -18 147 -21 98 -6 105 -5 160
22 74 37 284 238 319 308 13 26 28 47 32 47 11 0 -4 -121 -23 -186 -21 -72
-54 -108 -112 -124 -61 -16 -130 -55 -144 -81 -10 -20 -10 -20 19 1 30 22 152
42 152 24 0 -5 -20 -21 -43 -35 -55 -33 -102 -91 -166 -204 -74 -131 -68 -124
-78 -96 -9 22 -16 9 -64 -109 -45 -113 -63 -143 -109 -193 -30 -33 -46 -55
-34 -49 11 6 26 18 34 26 7 9 19 16 28 16 13 0 13 -2 -2 -17 -17 -19 -27 -35
-192 -309 -98 -165 -149 -238 -138 -199 3 11 -11 -9 -30 -45 -19 -36 -35 -69
-36 -74 0 -10 67 52 325 304 125 122 176 179 193 215 55 116 77 155 137 245
35 52 90 124 122 159 l58 63 1 -36 c0 -27 15 -58 56 -119 107 -158 158 -274
158 -362 0 -57 -53 -146 -148 -248 -120 -129 -137 -170 -136 -322 1 -82 6
-129 22 -185 67 -230 83 -307 88 -415 l4 -110 -33 100 c-36 106 -66 175 -77
175 -4 0 -10 -21 -14 -47 -11 -84 -79 -207 -159 -287 -78 -78 -125 -106 -227
-132 -75 -19 -184 -15 -265 10 -80 25 -198 108 -259 184 -62 78 -146 218 -146
245 0 9 -14 46 -31 80 -18 34 -43 93 -56 132 -26 76 -59 253 -49 262 3 4 6 -1
6 -10 0 -22 22 -18 36 6 10 17 13 15 39 -20 16 -21 70 -78 120 -128 90 -88
136 -159 181 -272 14 -37 14 -35 10 52 -7 148 -50 229 -241 455 -60 71 -106
151 -126 217 -6 23 -16 40 -22 36 -6 -4 -7 12 -4 43 l6 49 -15 -35 c-29 -64
-55 -184 -63 -292 -29 -400 106 -794 356 -1039 170 -167 338 -243 568 -255
170 -10 321 36 470 144 89 64 143 126 250 287 62 94 225 401 179 338 -9 -13
-21 -23 -27 -23 -5 0 -18 -10 -28 -21 -11 -12 -25 -19 -34 -15 -8 3 -15 0 -15
-6 0 -8 -22 -9 -72 -4 -40 4 -79 8 -85 8 -7 1 -13 4 -13 8 0 3 -10 6 -21 7
-20 2 -89 30 -89 37 0 17 -123 343 -134 355 -20 22 -20 92 -1 149 36 102 68
147 179 252 60 58 128 122 149 142 23 22 36 42 32 50 -4 7 27 -21 67 -63 81
-84 123 -153 164 -274 23 -68 27 -96 26 -190 0 -128 -28 -283 -73 -412 -39
-111 -144 -298 -225 -405 -91 -117 -118 -158 -111 -164 18 -18 172 127 265
249 105 137 216 377 252 545 43 200 36 371 -25 562 -18 58 -36 120 -39 139 -8
45 14 133 74 297 64 174 73 215 60 263 -12 45 -45 77 -125 121 -76 41 -260
184 -293 228 -13 18 -42 81 -62 140 -21 59 -41 114 -45 124 -3 9 12 -1 34 -22
61 -58 187 -99 208 -67 9 14 30 86 39 135 4 17 10 32 13 32 4 0 15 6 25 13 17
13 17 15 -4 58 -14 26 -26 74 -31 119 -4 41 -13 88 -19 105 l-11 30 -31 -54
c-50 -86 -139 -174 -219 -216 -39 -20 -72 -35 -75 -33 -2 3 34 37 80 77 104
89 155 144 188 202 43 74 43 83 1 114 l-38 28 24 -26z m-169 -236 c-5 -11 -15
-23 -22 -27 -7 -5 -8 -2 -3 7 21 37 44 55 25 20z m204 -30 c17 -27 -35 -64
-58 -41 -8 9 -5 16 13 31 26 21 37 24 45 10z m-668 -484 c21 -20 -145 -54
-187 -38 -22 8 -19 10 31 24 89 26 140 30 156 14z m745 -298 c85 -55 99 -78
59 -99 -17 -9 -30 -6 -70 16 -59 32 -86 60 -95 97 -6 24 -4 27 17 27 14 0 54
-19 89 -41z m-96 -84 c22 -12 70 -50 107 -84 52 -48 73 -61 98 -61 24 0 31 -4
27 -14 -3 -8 -15 -75 -27 -148 -32 -199 -29 -195 -55 -98 -48 184 -114 299
-232 410 l-76 71 59 -26 c32 -14 77 -37 99 -50z m-1708 -1002 c-3 -10 -5 -4
-5 12 0 17 2 24 5 18 2 -7 2 -21 0 -30z"/>
    <path d="M4518 7313 c7 -3 16 -2 19 1 4 3 -2 6 -13 5 -11 0 -14 -3 -6 -6z"/>
    <path d="M4228 7123 c7 -3 16 -2 19 1 4 3 -2 6 -13 5 -11 0 -14 -3 -6 -6z"/>
    <path d="M3130 6265 c0 -13 69 -15 563 -14 309 1 589 4 622 8 71 8 -507 21
-912 21 -236 0 -273 -2 -273 -15z"/>
    <path d="M6255 6270 c-396 -7 -211 -19 375 -22 417 -3 475 -1 475 12 0 13 -39
15 -290 15 -159 0 -411 -2 -560 -5z"/>
    <path d="M3380 6117 c0 -127 74 -405 146 -549 43 -87 105 -191 110 -186 2 3
-18 53 -45 114 -93 210 -132 347 -155 544 -11 97 -13 105 -34 108 -19 3 -22
-1 -22 -31z"/>
    <path d="M6807 6008 c-19 -155 -41 -246 -92 -383 -84 -223 -218 -428 -400
-610 -159 -159 -296 -256 -512 -361 -89 -43 -118 -63 -70 -48 46 14 225 99
296 141 124 73 251 175 367 295 250 258 407 577 459 929 21 150 21 169 -8 169
-22 0 -24 -5 -40 -132z"/>
    <path d="M5872 5429 c-18 -144 -89 -361 -157 -482 -15 -26 -25 -50 -22 -53 3
-3 10 4 17 15 15 29 32 27 20 -3 -5 -13 -6 -27 -3 -30 4 -3 1 -6 -6 -6 -7 0
-9 -4 -6 -10 12 -19 -70 -146 -148 -227 -57 -60 -75 -54 -30 10 l37 52 -60
-65 c-102 -112 -226 -216 -323 -271 -64 -36 -40 -34 48 4 222 96 403 262 501
457 85 169 125 320 141 531 13 172 8 215 -9 78z"/>
    <path d="M3066 5338 c42 -139 142 -292 271 -420 142 -140 301 -242 460 -297
63 -21 224 -53 232 -46 5 5 5 5 -124 44 -239 73 -463 221 -619 411 -75 92
-154 207 -190 278 -27 54 -43 69 -30 30z"/>
    <path d="M5641 5214 c0 -11 3 -14 6 -6 3 7 2 16 -1 19 -3 4 -6 -2 -5 -13z"/>
    <path d="M5631 5183 c-1 -6 -4 -20 -7 -30 -5 -17 -5 -17 6 0 6 10 9 23 6 30
-3 9 -5 9 -5 0z"/>
    <path d="M3617 5100 c72 -47 85 -64 141 -176 39 -78 90 -150 99 -140 2 2 -9
35 -25 73 -16 37 -37 93 -47 123 -10 30 -21 62 -25 70 -9 19 -124 77 -170 86
-33 6 -31 4 27 -36z"/>
    <path d="M5640 4808 c-18 -29 -25 -46 -18 -38 18 19 61 90 55 90 -3 0 -20 -24
-37 -52z"/>
  </g>
</svg>